<svg width="116" height="18" viewBox="0 0 116 18" fill="none" xmlns="http://www.w3.org/2000/svg">
<path d="M13.875 8.05L19.65 -1.19209e-06H27.725V17.5H20.925V9.55L15.575 17.5H12.15L6.8 9.55V17.5H4.47035e-08V-1.19209e-06H8.1L13.875 8.05ZM36.7049 17.5H30.0049V-1.19209e-06H36.7049V17.5ZM54.7648 8.725V-1.19209e-06H61.4898V17.5H54.0898L45.6648 7.375V17.5H38.9648V-1.19209e-06H47.9398L54.7648 8.725ZM82.9701 5.8H70.4451V6.775H79.3451V10.725H70.4451V11.7H82.9701V17.5H63.7451V-1.19209e-06H82.9451L82.9701 5.8Z" fill="#222222"/>
<path d="M88.3326 6.13636H90.6053V8.40909H88.3326V6.13636ZM86.0598 6.13636H88.3326V8.40909H86.0598V6.13636ZM83.7871 8.40909H86.0598V10.6818H83.7871V8.40909ZM83.7871 10.6818H86.0598V12.9545H83.7871V10.6818ZM86.0598 10.6818H88.3326V12.9545H86.0598V10.6818ZM88.3326 10.6818H90.6053V12.9545H88.3326V10.6818ZM88.3326 12.9545H90.6053V15.2273H88.3326V12.9545ZM88.3326 15.2273H90.6053V17.5H88.3326V15.2273ZM86.0598 15.2273H88.3326V17.5H86.0598V15.2273ZM83.7871 15.2273H86.0598V17.5H83.7871V15.2273ZM83.7871 6.13636H86.0598V8.40909H83.7871V6.13636ZM92.8691 6.13636H95.1419V8.40909H92.8691V6.13636ZM92.8691 8.40909H95.1419V10.6818H92.8691V8.40909ZM92.8691 10.6818H95.1419V12.9545H92.8691V10.6818ZM95.1419 12.9545H97.4146V15.2273H95.1419V12.9545ZM95.1419 15.2273H97.4146V17.5H95.1419V15.2273ZM97.4146 6.13636H99.6873V8.40909H97.4146V6.13636ZM97.4146 8.40909H99.6873V10.6818H97.4146V8.40909ZM97.4146 10.6818H99.6873V12.9545H97.4146V10.6818ZM101.951 15.2273H104.224V17.5H101.951V15.2273ZM101.951 12.9545H104.224V15.2273H101.951V12.9545ZM101.951 10.6818H104.224V12.9545H101.951V10.6818ZM101.951 8.40909H104.224V10.6818H101.951V8.40909ZM104.224 6.13636H106.497V8.40909H104.224V6.13636ZM106.497 8.40909H108.769V10.6818H106.497V8.40909ZM106.497 10.6818H108.769V12.9545H106.497V10.6818ZM106.497 12.9545H108.769V15.2273H106.497V12.9545ZM106.497 15.2273H108.769V17.5H106.497V15.2273ZM101.951 6.13636H104.224V8.40909H101.951V6.13636ZM113.306 6.13636H115.579V8.40909H113.306V6.13636ZM111.033 6.13636H113.306V8.40909H111.033V6.13636ZM111.033 8.40909H113.306V10.6818H111.033V8.40909ZM111.033 10.6818H113.306V12.9545H111.033V10.6818ZM111.033 12.9545H113.306V15.2273H111.033V12.9545ZM111.033 15.2273H113.306V17.5H111.033V15.2273ZM113.306 15.2273H115.579V17.5H113.306V15.2273Z" fill="#323232"/>
</svg>
